<svg width="74" height="37" viewBox="0 0 74 37" fill="none" xmlns="http://www.w3.org/2000/svg">
<path d="M36.8067 36.1235C35.5786 36.1258 34.3884 35.7123 33.4427 34.9548L1.90527 9.54857C0.831856 8.68609 0.156827 7.44671 0.028681 6.1031C-0.0994647 4.75948 0.32977 3.42168 1.22196 2.38401C2.11414 1.34634 3.3962 0.693782 4.78609 0.569902C6.17597 0.446023 7.55984 0.860965 8.63325 1.72345L36.8067 24.4874L64.9801 2.53645C65.5178 2.11437 66.1364 1.79917 66.8005 1.60897C67.4646 1.41877 68.1609 1.35732 68.8497 1.42815C69.5384 1.49898 70.2058 1.70069 70.8137 2.02169C71.4215 2.34269 71.9577 2.77666 72.3914 3.29864C72.8728 3.8211 73.2374 4.43403 73.4623 5.09903C73.6872 5.76403 73.7676 6.46677 73.6986 7.16322C73.6295 7.85967 73.4124 8.53483 73.0608 9.14639C72.7093 9.75795 72.2308 10.2927 71.6555 10.7173L40.1181 35.2597C39.1453 35.8974 37.9794 36.2016 36.8067 36.1235Z" fill="#D7AC22"/>
</svg>
